Patient4_TMGait_0pt5_02_left_38_EMG.mot
version=1
nRows=20
nColumns=33
inDegrees=no
endheader
time	1LAddLong	2LGlutMax	3LGlutMed	4LIliopsoas	5LSemiMemb	6LBicFemLong	7LRecFem	8LVastMed	9LVastLat	10LGasMed	11LTibAnt	12lTibPost	13LPeroneusLong	14LSol	15LExtDigLong	16LFlexDigLong	17RAddLong	18RGlutMax	19RGlutMed	20RIliopsoas	21RSemiMemb	22RBicFemLong	23RRecFem	24RVastMed	25RVastLat	26RGasMed	27RTibAnt	28RTibPost	29RPeroneusLong	30RSol	31RExtDigLong	32RFlexDigLong
50.338	0.002136	0.018768	-0.007019	-0.003204	-0.028534	-0.007019	0.014038	0.01709	0.1651	-0.066223	0.00473	-0.002289	0.043945	0.1416	0.004883	0.009918	0.011292	-0.13473	-0.14664	-0.033264	0.054474	-0.006104	0.029755	0.039368	0.009155	0.030823	-0.64301	-0.005951	0.060272	-0.016479	-0.00351	0.005493
50.339	0.007629	-0.0177	0.015106	-0.005646	-0.02655	-0.023193	0.010834	0.005951	0.17197	-0.075531	0.000916	0.011139	0.041046	0.038757	0.009003	0.017548	0.017242	-0.14282	-0.38055	0.061951	0.001984	0.063782	0.037842	-0.000153	0.020447	0.027618	-0.13016	-0.002136	-0.002441	0.07843	0.004425	0.003662
50.34	0.01236	0.010986	0.053406	0.001526	-0.03067	-0.074463	0.016937	0.010834	0.18021	-0.050049	0.001373	0.00473	0.092926	-0.24139	0.00412	-0.003357	0.019836	-0.032349	-0.5072	0.11169	-0.11566	0.063934	0.048065	-0.024261	-0.006714	-0.059357	0.15274	-0.014801	-0.057068	0.077362	-0.005035	-0.003815
50.341	0.007172	0.023956	0.037842	-0.002899	-0.002441	-0.112	0.006409	0.003662	0.16983	-0.016479	0.000305	0.003967	0.16541	-0.33188	0.014648	0.007782	0.002289	0.014954	-0.39414	0.037231	-0.014648	0.05722	0.049744	0.040588	-0.0177	-0.11032	-0.005035	-0.02182	-0.003662	0.046082	-0.003815	0.011749
50.342	0.018158	0.011292	0.045624	-0.010834	0.011749	-0.088806	0.033722	-0.002899	0.17456	0.033875	-0.005646	0.00824	0.14069	-0.35278	0.011749	-0.003967	-0.000916	-0.010681	0.58319	0.008698	0.21011	0.10376	0.011444	0.062408	-0.010986	-0.018158	-0.12619	-0.031281	-0.034637	0.001221	-0.005188	0.002136
50.343	0.016479	0.008392	0.068359	0.009918	0.036163	-0.092926	0.013885	0.005798	0.16434	0.052948	0.000916	0.005035	0.085907	-0.29083	0.009155	-0.015411	-0.012665	-0.088806	0.76477	-0.13687	0.12436	0.13626	-0.010529	0.053558	-0.003357	0.057068	-0.10071	-0.001984	-0.20432	-0.1268	0.001678	-0.005188
50.344	0.022736	-0.034943	0.060272	0.007935	0.049591	-0.037079	0.030518	0.00351	0.16403	0.03067	-0.001221	0.002747	0.057526	-0.26215	0.012207	-0.009003	-0.002136	-0.1622	0.13733	-0.28305	-0.066376	0.15305	0.069427	0.021667	-0.000916	0.075378	-0.072021	0.036774	-0.32379	-0.11307	0	-0.015717
50.345	0.076294	-0.024719	0.080872	0.014954	0.025482	-0.02243	0.029144	0.004272	0.16647	0.001068	0.006409	-0.003815	0.076141	-0.17319	0.016632	-0.006104	0.021973	-0.089722	-0.020599	-0.1799	-0.067291	0.15366	0.13809	-0.016022	-0.044708	0.044098	-0.008698	0.009766	-0.25162	-0.090485	-0.005341	-0.009155
50.346	0.028076	-0.00351	0.069885	0.012207	0.013275	-0.025482	0.006866	-0.001678	0.17395	-0.031433	-0.004425	-0.00061	0.053711	0.02121	0.010681	0.003204	0.029449	-0.050201	0.075836	0.039215	-0.016785	0.1004	0.16083	-0.023651	-0.050201	-0.009155	0.15106	-0.019379	-0.13107	0.15274	-0.004883	-0.011902
50.347	-0.025482	-0.009003	-0.017853	0.01358	0.007935	-0.022278	0.005798	0.008087	0.17731	-0.060425	0.001526	-0.009003	0.075684	0.16953	-0.000458	0	0.038605	-0.072479	0.070953	0.29862	-0.041962	-0.01236	0.20187	-0.10376	-0.044708	-0.02655	0.27725	-0.04715	-0.059052	0.26489	-0.007019	-0.005798
50.348	0.024719	-0.011749	-0.063477	0.011292	0.012512	-0.014191	0.009308	0.003357	0.16968	-0.081329	0.007172	-0.001984	0.11215	0.19836	0.000763	-0.010223	0.034485	0.00412	0.36423	0.30014	-0.069427	-0.10132	0.25543	-0.15167	-0.052795	0.01709	0.28656	0.027008	0.058136	-0.008545	-0.002899	0.000458
50.349	0.011749	0.020294	-0.079651	-0.012207	-0.008545	-0.006714	0.028839	0.001526	0.17883	-0.056763	-0.002441	-0.00412	0.12955	0.14969	-0.006561	0.054474	-0.015259	0.005188	0.94009	0.14954	-0.11429	-0.099945	0.17899	-0.070801	-0.011444	0.032196	0.298	0.041199	0.062561	-0.19836	0.000458	-0.003052
50.35	0.002747	-0.007172	-0.070648	-0.014343	-0.013733	0.001373	0.00473	0.004883	0.18875	-0.001068	0.001984	-0.00824	0.085449	0.12238	-0.002289	0.014648	-0.037842	-0.027008	0.29327	0.14038	-0.13229	-0.13855	-0.072632	-0.022125	0.018005	0.007935	0.39002	0.03891	-0.015869	-0.25009	0.000153	-0.009766
50.351	-0.003967	-0.030975	0.007324	-0.007629	-0.019989	-0.004425	-0.002594	0.00473	0.1889	0.031738	0.005188	-0.008698	0.041962	0.13306	-0.007629	-0.092163	-0.033264	-0.040741	-0.27878	0.053253	-0.082855	-0.10559	-0.2179	-0.011597	0.023346	-0.005493	0.29266	0.015106	0.066528	-0.1059	0.001984	-0.010834
50.352	0.002747	-0.021515	-0.035095	0.000916	0.004425	-0.02121	-0.001526	0.00351	0.19104	0.016327	-0.005341	-0.001984	0.029755	0.11795	-0.007477	-0.045776	-0.027008	-0.096893	0.076141	-0.050507	-0.056458	-0.037994	-0.085602	0.006866	-0.011597	0.014801	0.1236	-0.010071	0.14587	-0.012207	-0.003662	-0.010071
50.353	-0.001373	0.008392	-0.023041	-0.00946	-0.02243	-0.020142	-0.007172	0.007172	0.18082	0.025635	-0.001526	-0.006256	0.041962	0.12451	-0.002594	0.018616	-0.006561	-0.027161	0.6015	-0.25284	-0.11963	-0.002594	-0.090027	-0.071716	-0.029755	-0.00061	0.065613	-0.015564	0.085297	0.098724	-0.005493	-0.000458
50.354	-0.010529	0.00885	-0.028839	0.000458	-0.025024	-0.028687	0.00412	0.003204	0.18112	0.021515	-0.009003	-0.007172	0.04303	0.11734	-0.006256	0.046387	0.007172	0.015259	0.27115	-0.28259	-0.1474	0.026398	-0.10834	-0.15274	-0.033875	-0.027618	-0.21133	-0.013428	-0.006866	0.3363	-0.004272	0.000763
50.355	-0.008087	-0.033875	-0.027161	0.00885	0.005341	-0.039215	0.014191	0.007324	0.15869	0.009918	-0.00473	-0.00351	0.054016	0.014648	-0.012207	0.022278	-0.025024	0.004272	0.040436	-0.057526	0.001678	0.079041	-0.1033	-0.082245	0.067291	-0.037079	-0.59082	-0.013428	0.06012	0.4007	0.001678	-0.005035
50.356	0.009918	-0.053864	-0.041962	-0.004425	0.04837	-0.032501	0.002747	0.000763	0.14679	-0.010376	0.003052	-0.013275	0.079193	-0.060883	-0.013733	0.031433	-0.027924	0.036163	0.21683	0.15411	0.2945	0.14343	0.034637	-0.052795	0.072784	-0.047455	-0.61737	0.002747	0.043945	0.08728	-0.00412	-0.002136
50.357	0.021057	0.001221	-0.082855	-0.00351	0.077515	-0.021667	-0.002441	0.000763	0.1474	-0.018463	-0.003815	-0.001678	0.079803	-0.064087	-0.003967	0.009613	-0.014801	0.012817	0.25116	0.26825	0.21668	0.13641	0.07431	0.059814	0.05661	-0.033417	-0.10712	0.004578	0.067749	-0.24262	-0.00351	-0.01236
